<svg width="30" height="30" xmlns="http://www.w3.org/2000/svg">
    <rect width="30" height="30" fill="#5865F2"/>
    <path d="M23.5 7.5c-1.5-1-3.2-1.7-5-2-.2 0-.4.1-.5.3-.1.3-.2.6-.2 1 1.7.2 3.3.8 4.7 1.7-1.6-1.2-3.6-2-5.8-2s-4.2.8-5.8 2c1.4-.9 3-1.5 4.7-1.7-.1-.4-.2-.7-.3-1-.1-.2-.3-.3-.5-.3-1.8.3-3.5 1-5 2-4 3.7-4.8 9.2-2.4 13.7 2.2 3 5.8 4.8 9.8 4.8s7.6-1.8 9.8-4.8c2.4-4.5 1.6-10-2.5-13.7zm-15.3 12.2c-1 0-1.8-.9-1.8-2s.8-2 1.8-2 1.8.9 1.8 2-.8 2-1.8 2zm10.8 0c-1 0-1.8-.9-1.8-2s.8-2 1.8-2 1.8.9 1.8 2-.8 2-1.8 2z" fill="#fff"/>
</svg>